<svg width="18" height="18" viewBox="0 0 18 18" fill="none" xmlns="http://www.w3.org/2000/svg">
    <path fill-rule="evenodd" clip-rule="evenodd" d="M13.268 10.4174V8.4715L13.2649 8.4741V7.09373L13.268 7.09112V6.6964C13.268 5.51405 12.3755 4.55556 11.2746 4.55556H3.88237C2.78142 4.55556 1.88892 5.51405 1.88892 6.6964V12.1925C1.88892 13.3748 2.78141 14.3333 3.88236 14.3333H11.2746C12.3755 14.3333 13.268 13.3748 13.268 12.1925V11.7978L13.2649 11.7952V10.4148L13.268 10.4174ZM15.6478 12.3923L13.8889 11.2615V7.62747L15.6478 6.49665C15.8368 6.33979 16.1111 6.48448 16.1111 6.74101V12.148C16.1111 12.4045 15.8368 12.5492 15.6478 12.3923Z" fill="white"/>
</svg>
