<svg width="18" height="18" viewBox="0 0 18 18" fill="none" xmlns="http://www.w3.org/2000/svg">
<path fill-rule="evenodd" clip-rule="evenodd" d="M12.7047 13.6839L14.8794 15.5868L15.4063 14.9847L1.69196 2.9847L1.16516 3.58676L2.72591 4.95241C2.21924 5.34059 1.88889 5.97707 1.88889 6.69641V12.1925C1.88889 13.3749 2.78139 14.3333 3.88234 14.3333H11.2746C11.8356 14.3333 12.3425 14.0844 12.7047 13.6839ZM13.268 11.7978V12.1531L4.53089 4.55556H11.2746C12.3755 4.55556 13.268 5.51405 13.268 6.69641V7.09113L13.2649 7.09373V8.4741L13.268 8.4715V10.4174L13.2649 10.4148V11.7952L13.268 11.7978ZM15.6477 12.3923L13.8889 11.2615V7.62747L15.6477 6.49665C15.8367 6.3398 16.1111 6.48449 16.1111 6.74102V12.148C16.1111 12.4045 15.8367 12.5492 15.6477 12.3923Z"/>
</svg>
