<svg width="19" height="18" viewBox="0 0 19 18" fill="none" xmlns="http://www.w3.org/2000/svg">
    <path fill-rule="evenodd" clip-rule="evenodd" d="M0 9.07438C0 6.69421 0.892562 4.31405 2.67769 2.67769C4.31405 0.892562 6.69421 0 9.07438 0C11.4545 0 13.6859 0.892562 15.4711 2.67769C18.7438 5.95041 18.8926 11.157 16.0661 14.7273C15.9806 14.8128 15.9442 14.8492 15.9288 14.8929C15.9174 14.9252 15.9174 14.9616 15.9174 15.0248C16.3636 15.7686 16.8099 16.3636 17.5537 16.8099C17.8512 16.8099 18 17.1074 17.8512 17.405C17.8512 17.7025 17.7025 18 17.405 18H16.6612C15.4711 18 14.4298 17.7025 13.5372 16.9587H13.2397C12.0496 17.7025 10.562 18 9.07438 18C6.69421 18 4.31405 17.1074 2.67769 15.4711C0.892562 13.686 0 11.4545 0 9.07438ZM13.0909 15.9174C9.96694 17.7025 5.95041 17.2562 3.42149 14.5785C0.297521 11.6033 0.297521 6.54545 3.42149 3.42149C6.54545 0.297521 11.6033 0.297521 14.5785 3.42149C17.5537 6.39669 17.7025 11.157 15.0248 14.281C14.9392 14.3665 14.9029 14.4029 14.8874 14.4466C14.876 14.4789 14.876 14.5153 14.876 14.5785V14.876C15.1736 15.6198 15.6198 16.3636 16.3636 16.9587C15.7686 16.9587 14.7273 16.8099 13.6859 15.9174C13.5372 15.7686 13.2397 15.7686 13.0909 15.9174ZM8.6115 9.63636C8.16521 9.63636 7.71893 9.33884 7.71893 8.89256C7.71893 8.44628 8.16521 8 8.6115 8C9.05778 8 9.3553 8.44628 9.3553 8.89256C9.3553 9.33884 9.05778 9.63636 8.6115 9.63636ZM4 8.89256C4 9.33884 4.44628 9.63636 4.89256 9.63636C5.33884 9.63636 5.78512 9.33884 5.78512 8.89256C5.78512 8.44628 5.33884 8 4.89256 8C4.44628 8 4 8.44628 4 8.89256ZM12.3305 9.63636C11.7354 9.63636 11.4379 9.33884 11.4379 8.89256C11.4379 8.44628 11.7354 8 12.3305 8C12.7768 8 13.0743 8.44628 13.0743 8.89256C13.0743 9.33884 12.7768 9.63636 12.3305 9.63636Z" fill="white"/>
</svg>

