<svg width="22" height="22" viewBox="0 0 25 25" fill="none" xmlns="http://www.w3.org/2000/svg">
<path fill="#BFBFBF" d="M22.4918 16.2287C22.9039 14.641 22.1541 12.9008 20.5712 12.1627L18.0201 10.9731C17.8725 10.9043 17.7208 10.8547 17.568 10.8221C18.0363 10.4346 18.3353 9.8491 18.3353 9.19514V6.38031C18.3353 4.66055 17.0948 3.22602 15.4617 2.92203C15.1644 1.28774 13.7387 0 12.0019 0C10.2666 0 8.83973 1.28648 8.54208 2.92203C6.90906 3.22597 5.66851 4.6605 5.66851 6.38031V9.19514C5.66851 9.8491 5.96743 10.4346 6.43585 10.8221C6.28292 10.8547 6.1313 10.9042 5.98367 10.9731L3.43258 12.1627C1.84943 12.9009 1.09986 14.6412 1.51194 16.2286C0.136517 17.1997 -0.401708 19.0267 0.322289 20.5793C1.04699 22.1334 2.80526 22.9584 4.43448 22.5447C5.39998 23.899 7.2267 24.4166 8.78583 23.6896L11.3369 22.5C11.5961 22.3791 11.8196 22.2081 12.002 22.0031C12.1843 22.2081 12.4078 22.3791 12.6669 22.5L15.218 23.6896C16.7778 24.4169 18.6042 23.8983 19.5693 22.5447C21.1805 22.9539 22.9487 22.1509 23.6815 20.5793C24.4055 19.0268 23.8673 17.1997 22.4918 16.2287ZM17.4254 12.2488L19.9764 13.4383C20.8383 13.8401 21.3014 14.7535 21.1741 15.6497C19.6289 15.3197 17.9742 16.0713 17.2585 17.602L18.4465 15.0543C18.6107 14.7021 18.4583 14.2833 18.1061 14.1191L16.8306 13.5243C16.4789 13.3603 16.3262 12.9408 16.4902 12.5891C16.6545 12.2367 17.0729 12.0843 17.4254 12.2488ZM12.0019 1.40742C13.1463 1.40742 14.1131 2.39567 14.1131 3.56548C14.1131 4.72956 13.166 5.67662 12.0019 5.67662C10.8378 5.67662 9.89076 4.72956 9.89076 3.56548C9.8908 2.39567 10.8576 1.40742 12.0019 1.40742ZM7.07597 6.38031C7.07597 5.42907 7.70854 4.62307 8.57496 4.36003C8.93623 5.91855 10.3351 7.08404 12.002 7.08404C13.6688 7.08404 15.0676 5.91855 15.4289 4.36003C16.2954 4.62307 16.9279 5.42911 16.9279 6.38031V9.19514C16.9279 9.58315 16.6123 9.89887 16.2242 9.89887C15.8362 9.89887 15.5205 9.5832 15.5205 9.19514V7.78772C15.5205 7.3991 15.2055 7.08399 14.8168 7.08399H12.0019H9.18707C8.79845 7.08399 8.48339 7.39906 8.48339 7.78772V9.19514C8.48339 9.58315 8.16772 9.89887 7.77966 9.89887C7.3916 9.89887 7.07593 9.5832 7.07593 9.19514V6.38031H7.07597ZM4.02738 13.4383L6.57847 12.2487C6.93097 12.0843 7.34928 12.2365 7.51366 12.589C7.67804 12.9415 7.52581 13.3599 7.17332 13.5242L5.89777 14.119C5.54555 14.2832 5.39318 14.7019 5.55742 15.0542L6.74604 17.6032C6.03077 16.0719 4.3757 15.3195 2.8298 15.6496C2.70239 14.7535 3.1656 13.8401 4.02738 13.4383ZM4.45024 21.0526C3.39331 21.5454 2.09187 21.0441 1.59779 19.9845C1.11051 18.9394 1.58963 17.6808 2.66589 17.179C3.72521 16.685 4.97932 17.1448 5.47138 18.2001C5.96476 19.2581 5.49714 20.5644 4.45024 21.0526ZM10.7422 21.2244L8.19108 22.414C7.32869 22.8162 6.33054 22.5833 5.72602 21.9087C6.24159 21.5034 6.63636 20.957 6.86585 20.3156C7.18617 19.4202 7.14428 18.4584 6.74791 17.6073L7.93663 20.1565C8.10073 20.5084 8.51951 20.6611 8.87182 20.4968L10.1474 19.902C10.4999 19.7377 10.9182 19.8899 11.0826 20.2424C11.2505 20.6026 11.0915 21.0616 10.7422 21.2244ZM12.0019 19.1133C11.4082 18.4637 10.4244 18.2198 9.55247 18.6264L8.9147 18.9238L7.1303 15.0972L7.76807 14.7998C8.82308 14.3079 9.28113 13.0493 8.78921 11.9943C8.65223 11.7005 8.45566 11.4532 8.22077 11.2596C9.1738 11.0562 9.8908 10.2079 9.8908 9.19514V8.49141H14.1131V9.19514C14.1131 10.2079 14.8301 11.0561 15.7831 11.2596C15.5481 11.4531 15.3516 11.7004 15.2146 11.9943C14.7227 13.0493 15.1808 14.3078 16.2358 14.7998L16.8736 15.0972L15.0892 18.9238L14.4514 18.6264C13.5796 18.22 12.5958 18.4635 12.0019 19.1133ZM15.8128 22.4141L13.2617 21.2245C12.9124 21.0616 12.7534 20.6027 12.9214 20.2424C13.0854 19.8907 13.5049 19.738 13.8566 19.902L15.1321 20.4968C15.4841 20.6609 15.9031 20.5087 16.0673 20.1565L17.2556 17.6083C16.8597 18.4593 16.8179 19.4206 17.1381 20.3156C17.3676 20.957 17.7623 21.5034 18.2779 21.9087C17.6734 22.5833 16.6753 22.8162 15.8128 22.4141ZM22.406 19.9845C21.9122 21.0434 20.6111 21.5457 19.5535 21.0526C18.5067 20.5644 18.039 19.2582 18.5324 18.2001C19.0255 17.1424 20.2803 16.6859 21.3379 17.179C22.4142 17.6808 22.8934 18.9394 22.406 19.9845Z"/>
</svg>
