<svg width="33" height="33" viewBox="0 0 33 33" fill="none" xmlns="http://www.w3.org/2000/svg">
    <g filter="url(#filter0_d)">
        <path fill-rule="evenodd" clip-rule="evenodd" d="M3.44601 17.5913C3.43498 17.271 3.44173 16.9511 3.44848 16.6313C3.45949 16.1242 3.46455 15.6186 3.42486 15.1051C3.39798 14.2258 3.69865 13.5269 4.32176 12.9038C4.38396 12.8416 4.4467 12.7788 4.51321 12.721C5.66874 11.7043 7.08768 11.0559 8.52514 10.5516C11.8563 9.38151 15.348 8.9604 18.8589 9.2692C21.4884 9.5004 23.9833 10.0341 26.39 11.1318C27.4764 11.6275 28.5376 12.2474 29.3165 13.169C29.7564 13.6901 29.9702 14.2793 29.969 14.9628L29.9616 17.6285C29.9499 17.9814 29.8551 18.3464 29.5988 18.6027C29.3467 18.8548 28.9969 18.9452 28.6257 18.9462C28.1563 18.9636 27.6901 18.9594 27.2213 18.9536C26.971 18.9499 26.7212 18.9511 26.4747 18.9479L24.3447 18.9534C23.4329 18.9557 22.9846 18.5063 22.9859 17.5946C22.987 17.3696 22.9833 17.1452 22.9876 16.9256C22.9812 16.2777 22.9834 15.6308 23.0196 14.9531C23.0208 14.4815 22.8273 14.2112 22.3849 13.983C21.3329 13.5476 20.2453 13.3384 19.1272 13.208L19.1083 13.2075C16.9056 12.9844 14.7091 13.0402 12.5412 13.5334C12.2934 13.5896 12.0536 13.669 11.8139 13.7495C11.6141 13.8169 11.4154 13.8854 11.2162 13.9317C11.1919 13.9399 11.1692 13.9432 11.146 13.9503C10.9846 14.0052 10.8414 14.0827 10.7208 14.2033C10.5109 14.4132 10.4401 14.6712 10.4399 14.9588L10.4331 17.6272C10.4316 17.9806 10.3481 18.359 10.0896 18.6175C9.83754 18.8696 9.47261 18.9568 9.11819 18.9421L4.81937 18.9531C3.92822 18.9554 3.46008 18.4765 3.44549 17.5926L3.44601 17.5913Z" fill="white"/>
    </g>
    <defs>
        <filter id="filter0_d" x="0.711914" y="0.525528" width="31.9759" height="31.9759" filterUnits="userSpaceOnUse" color-interpolation-filters="sRGB">
            <feFlood flood-opacity="0" result="BackgroundImageFix"/>
            <feColorMatrix in="SourceAlpha" type="matrix" values="0 0 0 0 0 0 0 0 0 0 0 0 0 0 0 0 0 0 127 0"/>
            <feOffset dy="0.5"/>
            <feGaussianBlur stdDeviation="0.25"/>
            <feColorMatrix type="matrix" values="0 0 0 0 0 0 0 0 0 0 0 0 0 0 0 0 0 0 0.25 0"/>
            <feBlend mode="normal" in2="BackgroundImageFix" result="effect1_dropShadow"/>
            <feBlend mode="normal" in="SourceGraphic" in2="effect1_dropShadow" result="shape"/>
        </filter>
    </defs>
</svg>
