<!-- Generated by IcoMoon.io -->
<svg version="1.1" xmlns="http://www.w3.org/2000/svg" width="22" height="22" viewBox="0 0 1024 1024">
<title></title>
<g id="icomoon-ignore">
</g>
<path fill="#656565" d="M510.527 880.551h-331.696c-20.344 0-36.854-16.514-36.854-36.857v-663.389c0-20.344 16.512-36.854 36.854-36.854h331.696c20.38 0 36.854-16.473 36.854-36.854s-16.473-36.857-36.854-36.857h-331.696c-60.958 0-110.564 49.608-110.564 110.565v663.389c0 60.955 49.606 110.565 110.564 110.565h331.696c20.38 0 36.854-16.473 36.854-36.857 0-20.378-16.473-36.85-36.854-36.85z"></path>
<path fill="#656565" d="M944.749 485.758l-224.072-221.13c-14.452-14.3-37.813-14.114-52.116 0.369-14.3 14.484-14.152 37.813 0.369 52.113l160.134 158.033h-429.102c-20.381 0-36.854 16.473-36.854 36.854s16.473 36.856 36.854 36.856h429.102l-160.134 158.034c-14.52 14.302-14.631 37.629-0.369 52.115 7.223 7.298 16.734 10.977 26.243 10.977 9.359 0 18.719-3.536 25.873-10.615l224.072-221.127c7.004-6.928 10.984-16.364 10.984-26.241 0-9.873-3.939-19.271-10.984-26.238z"></path>
</svg>
