<svg width="18" height="18" viewBox="0 0 18 18" fill="none" xmlns="http://www.w3.org/2000/svg">
    <path fill-rule="evenodd" clip-rule="evenodd" d="M10.8724 4.92882C10.8724 3.86356 10.0706 3 9.08139 3C8.09222 3 7.29034 3.86356 7.29034 4.92882V6.1695L10.8724 9.28436V4.92882ZM7.29034 8.05507V9.42939C7.29034 10.4946 8.09222 11.3582 9.08139 11.3582C9.59234 11.3582 10.0533 11.1278 10.3796 10.7582L11.0036 11.3042C10.5158 11.8237 9.83478 12.1463 9.08136 12.1463C7.59761 12.1463 6.39479 10.8953 6.39479 9.35224V7.64478C6.39479 7.3876 6.19432 7.17911 5.94703 7.17911C5.69974 7.17911 5.49927 7.3876 5.49927 7.64478V9.35224C5.50015 11.229 6.84321 12.812 8.6336 13.0466V14.009H7.43957C7.19227 14.009 6.99181 14.2174 6.99181 14.4746C6.99181 14.7318 7.19227 14.9403 7.43957 14.9403H10.7231C10.9704 14.9403 11.1709 14.7318 11.1709 14.4746C11.1709 14.2174 10.9704 14.009 10.7231 14.009H9.52912V13.0466C10.3835 12.9346 11.136 12.5156 11.6894 11.9042L15 14.801L15.5268 14.199L3.5268 3.69896L3 4.30102L7.29034 8.05507ZM12.6634 9.35224C12.6632 9.80612 12.5845 10.2428 12.44 10.6474L11.6954 9.99995C11.7428 9.79208 11.7679 9.57521 11.7679 9.35224V7.64478C11.7679 7.3876 11.9684 7.17911 12.2157 7.17911C12.463 7.17911 12.6634 7.3876 12.6634 7.64478V9.35224Z"/>
</svg>
