<svg width="18" height="18" viewBox="0 0 18 18" fill="none" xmlns="http://www.w3.org/2000/svg">
<path fill-rule="evenodd" clip-rule="evenodd" d="M10.609 4.92883C10.609 3.86358 9.80713 3.00002 8.81796 3.00002C7.82879 3.00002 7.02692 3.86358 7.02692 4.92883V9.42941C7.02692 10.4947 7.82879 11.3582 8.81796 11.3582C9.80713 11.3582 10.609 10.4947 10.609 9.42941V4.92883ZM11.5045 7.6448C11.5045 7.38762 11.705 7.17913 11.9523 7.17913C12.1995 7.17913 12.4 7.38762 12.4 7.6448V9.35226C12.3991 11.229 11.0561 12.812 9.26569 13.0466V14.009H10.4597C10.707 14.009 10.9075 14.2175 10.9075 14.4747C10.9075 14.7318 10.707 14.9403 10.4597 14.9403H7.17614C6.92885 14.9403 6.72838 14.7318 6.72838 14.4747C6.72838 14.2175 6.92885 14.009 7.17614 14.009H8.37017V13.0466C6.57979 12.812 5.23672 11.229 5.23584 9.35226V7.6448C5.23584 7.38762 5.43631 7.17913 5.6836 7.17913C5.93089 7.17913 6.13136 7.38762 6.13136 7.6448V9.35226C6.13136 10.8954 7.33418 12.1463 8.81793 12.1463C10.3017 12.1463 11.5045 10.8954 11.5045 9.35226V7.6448Z" fill="white"/>
</svg>
