<svg width="16" height="12" viewBox="0 0 16 12" fill="none" xmlns="http://www.w3.org/2000/svg">
<path fill-rule="evenodd" clip-rule="evenodd" d="M11.1538 5.42648C11.5108 4.95045 11.6298 4.2364 11.6298 3.64135C11.6298 3.28433 11.6298 2.8083 11.5108 2.45127C11.6298 2.45127 11.7488 2.45127 11.9868 2.45127C12.8199 2.45127 13.5339 3.16532 13.5339 3.99838C13.5339 4.95045 12.8199 5.66449 11.9868 5.66449C11.6298 5.66449 11.3918 5.54549 11.1538 5.42648ZM4.84633 1.85623C4.60831 1.73722 4.3703 1.73722 4.13228 1.73722C2.82319 1.73722 1.75211 2.68929 1.75211 3.99838C1.75211 4.71243 2.10914 5.42648 2.70418 5.7835V5.90251C2.70418 5.90251 2.70418 5.90251 2.58517 6.02152C1.5141 6.49755 0.800049 7.56863 0.800049 8.75871C0.800049 8.99673 0.919057 9.11574 1.15707 9.11574C1.27608 9.11574 1.5141 8.99673 1.5141 8.75871C1.5141 7.33061 2.70418 6.37854 4.13228 6.37854C4.72732 6.37854 5.32236 6.61656 5.7984 6.97359L5.67939 7.09259C3.89426 7.92565 3.18021 9.35375 3.18021 11.2579V11.3769C3.18021 11.4959 3.29922 11.7339 3.53724 11.7339C3.77526 11.7339 3.89426 11.4959 3.89426 11.3769C3.89426 8.87772 5.56038 7.33061 8.05955 7.33061C10.5587 7.33061 12.3439 8.75871 12.3439 11.3769C12.3439 11.4959 12.4629 11.7339 12.7009 11.7339C12.8199 11.7339 13.0579 11.4959 13.0579 11.3769V11.2579C13.0579 9.23474 12.1058 7.92565 10.3207 7.09259L10.2017 6.97359C10.6777 6.61656 11.2728 6.37854 11.9868 6.37854C13.4149 6.37854 14.605 7.33061 14.605 8.75871C14.605 8.99673 14.724 9.11574 14.962 9.11574C15.081 9.11574 15.2 8.99673 15.2 8.75871C15.2 7.56863 14.486 6.49755 13.4149 6.02152C13.4149 5.90251 13.4149 5.90251 13.4149 5.90251V5.7835C14.01 5.42648 14.248 4.71243 14.248 3.99838C14.248 2.68929 13.1769 1.73722 11.9868 1.73722C11.6298 1.73722 11.3918 1.73722 11.1538 1.85623C10.5587 0.785156 9.36864 0.071106 8.05955 0.071106C6.63145 0.071106 5.56038 0.785156 4.84633 1.85623ZM4.84633 5.42648C4.60831 5.54549 4.3703 5.66449 4.13228 5.66449C3.18021 5.66449 2.46616 4.95045 2.46616 3.99838C2.46616 3.16532 3.18021 2.45127 4.13228 2.45127C4.25129 2.45127 4.4893 2.45127 4.60831 2.45127C4.4893 2.8083 4.3703 3.28433 4.3703 3.64135C4.3703 4.2364 4.60831 4.83144 4.84633 5.42648ZM8.05955 0.785156C9.60666 0.785156 10.9158 2.09425 10.9158 3.64135C10.9158 5.18846 9.60666 6.49755 8.05955 6.49755C6.39344 6.49755 5.08435 5.30747 5.08435 3.64135C5.08435 2.09425 6.39344 0.785156 8.05955 0.785156Z" fill="white"/>
</svg>
