<svg width="13" height="20" viewBox="0 0 13 20" fill="none" xmlns="http://www.w3.org/2000/svg">
    <path d="M11.375 3.24998C11.0793 3.24998 10.8014 3.32961 10.5625 3.46855V3.24998C10.5625 2.35377 9.83372 1.62496 8.93752 1.62496C8.64178 1.62496 8.36391 1.7046 8.12503 1.84354V1.62496C8.12503 0.728798 7.39622 -1.52588e-05 6.50002 -1.52588e-05C5.60382 -1.52588e-05 4.875 0.728798 4.875 1.625V1.84357C4.63613 1.70464 4.35825 1.625 4.06252 1.625C3.16632 1.625 2.4375 2.35381 2.4375 3.25001V7.71959C2.09789 7.46445 1.6762 7.31253 1.21875 7.31253C0.5468 7.31253 0 7.85933 0 8.53128V12.1965C0 14.1327 0.753988 15.9535 2.12306 17.3226L3.46693 18.6673C3.99667 19.1962 4.72876 19.5001 5.47787 19.5001H8.53126C10.9948 19.5001 13 17.4957 13 15.0313V4.87499C13 3.97879 12.2712 3.24998 11.375 3.24998ZM12.1875 15.0313C12.1875 17.0471 10.5471 18.6875 8.53126 18.6875H5.47787C4.94326 18.6875 4.41919 18.4706 4.04138 18.092L2.69752 16.7481C1.482 15.5318 0.812526 13.9157 0.812526 12.1965V8.53124C0.812526 8.30699 0.995339 8.12498 1.21879 8.12498C1.89074 8.12498 2.43754 8.67178 2.43754 9.34373V11.7812C2.43754 12.0055 2.61955 12.1875 2.8438 12.1875C3.06805 12.1875 3.25007 12.0055 3.25007 11.7812V3.24998C3.25003 2.80231 3.61402 2.43749 4.06252 2.43749C4.51102 2.43749 4.875 2.80231 4.875 3.24998V8.53124C4.875 8.75549 5.05702 8.93751 5.28127 8.93751C5.50552 8.93751 5.68753 8.75549 5.68753 8.53124V1.625C5.68753 1.1773 6.05152 0.812511 6.50002 0.812511C6.94852 0.812511 7.31251 1.17734 7.31251 1.625V8.53124C7.31251 8.75549 7.49452 8.93751 7.71877 8.93751C7.94302 8.93751 8.12503 8.75549 8.12503 8.53124V3.24998C8.12503 2.80231 8.48902 2.43749 8.93752 2.43749C9.38602 2.43749 9.75001 2.80231 9.75001 3.24998V8.53124C9.75001 8.75549 9.93202 8.93751 10.1563 8.93751C10.3805 8.93751 10.5625 8.75549 10.5625 8.53124V4.87499C10.5625 4.42729 10.9265 4.0625 11.375 4.0625C11.8235 4.0625 12.1875 4.42733 12.1875 4.87499V15.0313Z" fill="white"/>
</svg>
