<!-- Generated by IcoMoon.io -->
<svg version="1.1" xmlns="http://www.w3.org/2000/svg" width="22" height="22" viewBox="0 0 1024 1024">
<title></title>
<g id="icomoon-ignore">
</g>
<path fill="#BFBFBF" d="M1018.563 863.498l-109.164-432.686c-8.54-34.161-36.045-59.432-69.632-65.793v-1.577c0-66.907-37.14-125.296-91.873-155.661 20.163-21.269 32.579-49.961 32.579-81.516 0-65.39-53.202-118.588-118.589-118.588-65.393 0-118.589 53.199-118.589 118.588 0 31.555 12.411 60.247 32.579 81.516-25.057 13.901-46.423 33.671-62.223 57.448-15.807-23.777-37.171-43.547-62.229-57.448 20.168-21.269 32.58-49.961 32.58-81.516 0-65.39-53.198-118.588-118.588-118.588s-118.588 53.199-118.588 118.588c0 31.555 12.412 60.247 32.58 81.516-54.736 30.367-91.874 88.754-91.874 155.661v1.577c-33.586 6.358-61.093 31.622-69.621 65.732l-109.174 432.746c-0.741 2.688-1.077 5.402-1.063 8.028v59.162c0 49.044 39.899 88.945 88.941 88.945 7.335 0 780.603 0 832.095 0 49.147 0 90.916-39.721 90.916-88.945v-59.156c0.015-2.627-0.317-5.34-1.060-8.033zM661.883 66.972c32.696 0 59.295 26.599 59.295 59.294s-26.598 59.294-59.295 59.294c-32.696 0-59.295-26.599-59.295-59.294s26.598-59.294 59.295-59.294zM661.883 244.855c65.388 0 118.589 53.198 118.589 118.588h-237.179c0-65.39 53.197-118.588 118.589-118.588zM365.412 66.972c32.695 0 59.294 26.599 59.294 59.294s-26.599 59.294-59.294 59.294c-32.695 0-59.294-26.599-59.294-59.294s26.599-59.294 59.294-59.294zM365.412 244.855c65.39 0 118.588 53.198 118.588 118.588h-237.176c0-65.39 53.199-118.588 118.588-118.588zM306.118 930.688v29.65h-209.506c-16.347 0-29.647-13.302-29.647-29.65v-29.844h241.279c-1.392 9.687-2.127 19.784-2.127 29.844zM661.883 960.338h-296.471v-29.65c0-81.736 66.499-148.234 148.237-148.234 81.736 0 148.234 66.499 148.234 148.234v29.65zM424.706 634.22c0-49.044 39.899-88.94 88.943-88.94 49.039 0 88.94 39.895 88.94 88.94s-39.9 88.94-88.94 88.94c-49.044 0-88.943-39.895-88.943-88.94zM609.853 746.854c31.811-27.208 52.029-67.594 52.029-112.635 0-81.736-66.499-148.236-148.234-148.236-81.738 0-148.237 66.5-148.237 148.236 0 45.041 20.219 85.427 52.026 112.635-39.739 20.879-71.918 54.262-91.269 94.894h-250.797l100.043-396.555c3.306-13.223 15.134-22.457 28.762-22.457 31.55 0 606.825 0 618.939 0 13.629 0 25.457 9.234 28.78 22.518l100.024 396.494h-250.793c-19.354-40.632-51.533-74.015-91.274-94.894zM960.328 930.688c0 15.795-14.776 29.65-31.621 29.65h-207.529v-29.65c0-10.066-0.737-19.958-2.13-29.645h241.28v29.645z"></path>
</svg>
