<svg width="1025" height="455" viewBox="0 0 1025 455" fill="none" xmlns="http://www.w3.org/2000/svg">
<path d="M587.278 277.027L605.165 318.703L622.961 277.027H633.986V330.322H625.569V311.978L626.438 287.594L608.23 330.322H602.009L583.847 287.777L584.716 311.978V330.322H576.299V277.027H587.278ZM735.673 306.259H711.336V323.415H739.653V330.322H702.872V277.027H739.379V284.026H711.336V299.306H735.673V306.259ZM837.544 306.259H813.206V323.415H841.524V330.322H804.743V277.027H841.249V284.026H813.206V299.306H837.544V306.259ZM947.008 284.026H928.755V330.322H920.292V284.026H902.13V277.027H947.008V284.026Z" fill="#47E0D1"/>
<path d="M559.992 212.391C559.992 206.866 557.757 202.428 553.288 199.076C548.88 195.724 542.208 193.117 533.269 191.255C524.33 189.331 517.378 187.158 512.412 184.737C507.508 182.254 503.846 179.244 501.425 175.706C499.066 172.167 497.887 167.884 497.887 162.856C497.887 154.911 501.208 148.362 507.85 143.21C514.492 137.996 522.996 135.389 533.362 135.389C544.597 135.389 553.598 138.182 560.364 143.769C567.192 149.293 570.606 156.525 570.606 165.463H559.433C559.433 159.566 556.95 154.663 551.984 150.752C547.08 146.841 540.873 144.886 533.362 144.886C526.037 144.886 520.14 146.531 515.671 149.821C511.264 153.049 509.06 157.27 509.06 162.484C509.06 167.512 510.891 171.422 514.554 174.216C518.278 176.947 525.013 179.461 534.759 181.758C544.566 184.054 551.891 186.506 556.733 189.113C561.637 191.721 565.268 194.855 567.627 198.518C569.985 202.18 571.165 206.618 571.165 211.832C571.165 220.336 567.72 227.134 560.83 232.224C554.002 237.314 545.063 239.859 534.014 239.859C522.282 239.859 512.754 237.034 505.429 231.386C498.166 225.675 494.535 218.474 494.535 209.784H505.708C506.143 216.302 508.874 221.392 513.902 225.054C518.992 228.654 525.696 230.454 534.014 230.454C541.773 230.454 548.042 228.747 552.822 225.333C557.602 221.919 559.992 217.605 559.992 212.391Z" fill="white"/>
<path d="M602.64 137.251L603.012 153.638C606.737 147.555 611.392 142.993 616.979 139.951C622.566 136.909 628.773 135.389 635.601 135.389C651.492 135.389 661.579 141.906 665.862 154.942C669.462 148.672 674.273 143.862 680.294 140.51C686.315 137.096 692.957 135.389 700.22 135.389C721.821 135.389 732.839 147.183 733.274 170.771V237.996H722.101V171.609C722.039 162.608 720.083 155.935 716.235 151.59C712.448 147.245 706.241 145.072 697.613 145.072C689.605 145.196 682.839 147.803 677.314 152.893C671.79 157.921 668.717 164.067 668.097 171.329V237.996H656.923V170.771C656.861 162.142 654.813 155.718 650.778 151.497C646.805 147.214 640.66 145.072 632.342 145.072C625.328 145.072 619.307 147.09 614.279 151.124C609.251 155.097 605.526 161.025 603.105 168.908V237.996H591.932V137.251H602.64Z" fill="white"/>
<path d="M821.36 237.996C820.243 234.831 819.529 230.144 819.219 223.937C815.308 229.027 810.311 232.968 804.228 235.762C798.207 238.493 791.813 239.859 785.047 239.859C775.364 239.859 767.511 237.158 761.49 231.758C755.531 226.358 752.551 219.529 752.551 211.274C752.551 201.466 756.617 193.707 764.749 187.996C772.943 182.285 784.333 179.43 798.92 179.43H819.125V167.977C819.125 160.777 816.891 155.128 812.421 151.031C808.014 146.872 801.559 144.793 793.055 144.793C785.295 144.793 778.871 146.779 773.781 150.752C768.691 154.725 766.146 159.504 766.146 165.091L754.972 164.998C754.972 156.99 758.697 150.069 766.146 144.234C773.594 138.337 782.75 135.389 793.613 135.389C804.848 135.389 813.694 138.213 820.15 143.862C826.667 149.448 830.019 157.27 830.206 167.326V214.998C830.206 224.744 831.23 232.037 833.278 236.879V237.996H821.36ZM786.351 229.989C793.799 229.989 800.441 228.189 806.276 224.588C812.173 220.988 816.456 216.178 819.125 210.156V187.996H799.2C788.089 188.12 779.398 190.169 773.129 194.141C766.859 198.052 763.725 203.452 763.725 210.343C763.725 215.991 765.804 220.678 769.963 224.402C774.184 228.127 779.647 229.989 786.351 229.989Z" fill="white"/>
<path d="M916.523 212.391C916.523 206.866 914.288 202.428 909.819 199.076C905.411 195.724 898.739 193.117 889.8 191.255C880.861 189.331 873.909 187.158 868.943 184.737C864.039 182.254 860.377 179.244 857.956 175.706C855.597 172.167 854.418 167.884 854.418 162.856C854.418 154.911 857.739 148.362 864.381 143.21C871.023 137.996 879.527 135.389 889.893 135.389C901.128 135.389 910.129 138.182 916.895 143.769C923.723 149.293 927.137 156.525 927.137 165.463H915.964C915.964 159.566 913.481 154.663 908.515 150.752C903.611 146.841 897.404 144.886 889.893 144.886C882.568 144.886 876.671 146.531 872.202 149.821C867.795 153.049 865.591 157.27 865.591 162.484C865.591 167.512 867.422 171.422 871.085 174.216C874.809 176.947 881.544 179.461 891.29 181.758C901.097 184.054 908.422 186.506 913.264 189.113C918.168 191.721 921.799 194.855 924.158 198.518C926.516 202.18 927.696 206.618 927.696 211.832C927.696 220.336 924.251 227.134 917.361 232.224C910.533 237.314 901.594 239.859 890.545 239.859C878.813 239.859 869.285 237.034 861.96 231.386C854.697 225.675 851.066 218.474 851.066 209.784H862.239C862.674 216.302 865.405 221.392 870.433 225.054C875.523 228.654 882.227 230.454 890.545 230.454C898.304 230.454 904.573 228.747 909.353 225.333C914.133 221.919 916.523 217.605 916.523 212.391Z" fill="white"/>
<path d="M960.102 154.29C963.764 148.269 968.451 143.613 974.162 140.324C979.873 137.034 986.111 135.389 992.877 135.389C1003.68 135.389 1011.72 138.43 1016.99 144.514C1022.27 150.597 1024.94 159.722 1025 171.888V237.996H1013.92V171.795C1013.86 162.794 1011.93 156.09 1008.15 151.683C1004.42 147.276 998.432 145.072 990.177 145.072C983.287 145.072 977.172 147.245 971.834 151.59C966.558 155.873 962.647 161.677 960.102 169.002V237.996H949.022V94.9788H960.102V154.29Z" fill="white"/>
<g filter="url(#filter0_d)">
<path fill-rule="evenodd" clip-rule="evenodd" d="M354.414 245.062L386.461 262.843H386.442L395.899 268.097C407.221 274.387 410.623 283.447 410.623 295.707V351.32C410.623 363.561 407.203 372.585 395.936 378.912L342.049 409.131L341.464 409.452L340.97 409.72C330.544 415.332 324.124 416.976 313.24 411.436L313.131 411.364L300.071 404.127L266.415 385.363L255.147 378.876C243.99 372.442 240.514 363.561 240.514 351.32V295.707C240.514 283.465 243.916 274.387 255.239 268.097C273.823 257.785 292.407 247.474 310.972 237.163C323.538 230.193 329.794 231.426 342.086 238.235C345.214 239.969 348.342 241.684 351.451 243.418L354.414 245.062ZM348.195 249.029L280.664 289.237C268.701 296.35 266.598 298.905 266.598 313.363V337.702C266.598 342.438 265.903 348.568 269.305 351.748C273.731 355.948 279.347 352.839 285.73 349.032C312.289 333.217 338.867 317.401 365.462 301.586C372.98 297.118 377.388 299.674 377.388 308.681C377.388 319.993 377.388 331.287 377.388 342.581C377.388 344.386 377.352 346.441 376.711 348.121C375.211 352.052 368.334 355.93 364.859 358.021C344.574 370.084 324.288 382.164 304.022 394.227L299.961 396.639L279.365 385.202L347.811 344.457L348.579 344.922C349.567 345.494 350.646 345.798 351.762 345.798C355.292 345.798 358.164 342.849 358.164 339.221C358.164 335.576 355.292 332.627 351.762 332.627C348.726 332.627 346.092 334.861 345.506 337.935L345.378 338.632L278.139 378.661C276.731 379.501 275.304 380.359 273.932 381.27L273.182 381.753L258.495 373.3C249.66 368.207 247.19 361.577 247.117 351.32V350.819V342.42V296.207V295.707C247.19 285.431 249.568 278.676 258.495 273.708C277.079 263.397 295.663 253.085 314.246 242.774C324.051 237.342 327.764 237.735 338.83 243.864C341.958 245.598 345.067 247.295 348.195 249.029ZM354.524 252.549L373.419 263.039L364.602 268.275L349.86 277.05V277.068C334.532 286.182 319.203 295.313 303.875 304.427L303.144 304.874L302.412 304.481C301.516 304.016 300.546 303.766 299.54 303.766C296.01 303.766 293.138 306.733 293.138 310.36C293.138 313.988 296.01 316.955 299.54 316.955C302.741 316.955 305.448 314.506 305.869 311.236L305.961 310.485L306.619 310.074C326.209 298.423 345.799 286.771 365.371 275.102C366.468 274.459 367.621 273.78 368.81 273.065L379.748 266.56L384.705 269.312L392.643 273.708C401.569 278.676 403.947 285.431 404.02 295.707V296.207V350.819V351.32C403.947 361.577 401.533 368.314 392.643 373.3L338.793 403.501L338.281 403.787L337.787 404.055C328.294 409.22 324.325 409.792 316.295 405.699L306.308 400.142L308.668 398.73C328.404 386.971 348.159 375.23 367.913 363.472C377.114 357.985 383.479 354.679 383.479 342.581C383.479 331.287 383.479 319.993 383.479 308.681C383.479 294.724 374.077 289.166 362.389 296.135C333.91 313.095 305.997 330.894 276.987 346.977C274.719 348.246 272.506 347.442 272.506 344.868C272.506 336.916 272.725 321.261 272.725 313.363C272.725 301.264 273.786 300.621 283.718 294.688L354.524 252.549Z" fill="white"/>
<path d="M423.462 97.2225L423.47 97.2158V101.86L423.462 101.854V102.033V105.582V105.626L423.47 105.632V106.603C423.47 109.593 421.012 112.018 417.977 112.018H397.279C394.244 112.018 391.786 109.593 391.786 106.603V92.473C391.786 89.4834 394.244 87.0578 397.279 87.0578H417.977C421.012 87.0578 423.47 89.4834 423.47 92.473V93.4438L423.462 93.4505V93.4945V97.0433V97.2225ZM431.962 107.046L431.956 107.042L431.95 107.038L426.496 104.156V94.9202L431.95 92.0379L431.956 92.0345L431.962 92.03C432.435 91.6698 433.117 92.004 433.117 92.5877V106.488C433.117 107.072 432.435 107.406 431.962 107.046ZM417.977 115.004C422.258 115.004 425.803 111.889 426.405 107.83L430.122 109.416C432.579 111.278 436.142 109.553 436.142 106.488V92.5877C436.142 89.5233 432.579 87.7983 430.122 89.6601L426.405 91.2465C425.803 87.1871 422.259 84.0721 417.977 84.0721H397.279C392.576 84.0721 388.761 87.8321 388.761 92.473V106.603C388.761 111.244 392.576 115.004 397.279 115.004H417.977Z" fill="white" stroke="white" stroke-width="0.177531"/>
<path d="M29.2041 208.225C29.2041 211.047 31.488 213.359 34.3429 213.359C37.1678 213.359 39.4818 211.077 39.4818 208.225C39.4818 205.403 37.1978 203.091 34.3429 203.091C31.518 203.121 29.2041 205.403 29.2041 208.225Z" fill="white"/>
<path d="M69.8285 208.224C69.8285 211.046 72.1124 213.358 74.9674 213.358C77.7922 213.358 80.1062 211.076 80.1062 208.224C80.1062 205.402 77.8223 203.09 74.9674 203.09C72.1425 203.12 69.8285 205.402 69.8285 208.224Z" fill="white"/>
<path d="M49.5163 208.224C49.5163 211.046 51.8002 213.358 54.6551 213.358C57.48 213.358 59.794 211.076 59.794 208.224C59.794 205.402 57.5101 203.09 54.6551 203.09C51.8002 203.12 49.5163 205.402 49.5163 208.224Z" fill="white"/>
<path fill-rule="evenodd" clip-rule="evenodd" d="M92.5171 238.747C98.395 235.252 100.176 230.272 100.176 223.583L100.176 192.599C100.176 185.779 98.3095 180.751 92.1615 177.226L73.8822 167.228L82.4503 161.656C84.3825 160.284 83.4264 157.201 81.0687 157.201C72.409 157.201 52.6238 157.254 52.6238 157.254C50.9305 157.425 49.137 158.015 47.0398 159.106L46.9799 159.145L15.3418 177.246C9.25371 180.83 7.35741 185.779 7.35741 192.599L7.35741 223.583C7.35741 230.403 9.21378 235.461 15.3917 238.965C25.5318 244.71 35.672 250.455 45.8022 256.2C52.6588 260.083 56.0721 259.396 62.779 255.602C93.1584 238.411 88.8681 240.917 92.5171 238.747ZM65.91 261.135L65.9088 261.136C62.4778 263.077 58.8542 264.866 54.7464 265.125C50.4282 265.397 46.5791 263.946 42.6694 261.732L42.6661 261.73C32.5373 255.986 22.3983 250.242 12.2579 244.497C8.4583 242.34 5.25112 239.246 3.33515 235.286C1.52599 231.548 0.999988 227.517 0.999988 223.583L0.999991 192.599C0.999991 188.644 1.54181 184.642 3.35026 180.927C5.20854 177.109 8.15524 174.1 12.1164 171.767L12.12 171.765L44.1079 153.465C46.5725 152.184 49.0524 151.277 51.6646 150.964L81.0687 150.844C89.7886 150.844 92.8935 161.873 86.2553 166.749L95.2122 171.648C95.2494 171.669 95.2865 171.69 95.3234 171.711C99.3595 174.025 102.333 177.059 104.196 180.905C106.003 184.637 106.533 188.659 106.533 192.599L106.533 223.583C106.533 227.521 106.008 231.552 104.198 235.291C102.33 239.149 99.3427 242.189 95.2784 244.495C85.4913 250.047 75.7042 255.593 65.91 261.135Z" fill="white"/>
<path fill-rule="evenodd" clip-rule="evenodd" d="M380.004 73.1938C375.153 76.0646 373.683 80.1553 373.683 85.6503L373.683 111.102C373.683 116.704 375.224 120.834 380.298 123.729L395.383 131.942L388.312 136.519C386.717 137.646 387.506 140.178 389.452 140.178C396.599 140.178 412.928 140.135 412.928 140.135C414.325 139.995 415.805 139.509 417.536 138.614L417.586 138.581L443.696 123.713C448.721 120.769 450.286 116.704 450.286 111.102L450.286 85.6503C450.286 80.0481 448.754 75.8935 443.655 73.0147C435.287 68.2957 426.918 63.5768 418.558 58.8578C412.899 55.6682 410.082 56.2325 404.547 59.3485C379.475 73.4698 383.015 71.4116 380.004 73.1938ZM401.963 54.8036L401.964 54.803C404.795 53.209 407.786 51.7393 411.176 51.5267C414.74 51.3033 417.916 52.495 421.143 54.3137L421.146 54.3152C429.505 59.0336 437.873 63.752 446.241 68.471C449.377 70.243 452.024 72.7841 453.605 76.0366C455.098 79.1079 455.533 82.4183 455.533 85.6503L455.533 111.102C455.533 114.35 455.085 117.637 453.593 120.689C452.059 123.826 449.627 126.297 446.358 128.213L446.355 128.215L419.956 143.248C417.922 144.3 415.875 145.044 413.719 145.301L389.452 145.4C382.256 145.4 379.693 136.34 385.172 132.335L377.78 128.311C377.749 128.294 377.718 128.277 377.688 128.26C374.357 126.359 371.903 123.866 370.366 120.707C368.874 117.641 368.437 114.338 368.437 111.102L368.437 85.6503C368.437 82.4151 368.87 79.1039 370.364 76.0326C371.905 72.8642 374.371 70.3664 377.725 68.4725C385.802 63.9118 393.88 59.3562 401.963 54.8036Z" fill="white"/>
<path d="M315.362 119.544C315.362 163.136 280.328 198.474 237.112 198.474C193.895 198.474 158.861 163.136 158.861 119.544C158.861 75.9514 193.895 40.6129 237.112 40.6129C280.328 40.6129 315.362 75.9514 315.362 119.544Z" fill="url(#paint0_linear)"/>
<path fill-rule="evenodd" clip-rule="evenodd" d="M316.061 161.275C322.569 148.798 326.249 134.597 326.249 119.544C326.249 111.502 325.199 103.704 323.229 96.2823C331.351 89.561 341.774 85.5218 353.141 85.5218C356.044 85.5218 358.886 85.7853 361.644 86.2898C361.636 86.6258 361.632 86.9574 361.632 87.2841V112.118C361.632 115.821 362.124 120.136 364.168 124.343C366.314 128.761 371.223 132.944 375.46 135.365C373.661 143.129 378.649 152.129 388.671 152.129C388.671 152.129 391.763 152.165 395.764 152.187C388.313 168.268 372.03 179.422 353.141 179.422C338.066 179.422 324.651 172.318 316.061 161.275ZM158.51 161.933C149.801 173.397 136.129 180.783 120.757 180.783C118 180.783 115.297 180.545 112.667 180.089C112.343 179.205 111.971 178.321 111.545 177.44C108.875 171.928 102.77 166.71 97.5004 163.688C99.7375 154.002 93.5337 142.773 81.0689 142.773C81.0689 142.773 78.1942 142.74 74.1988 142.713C73.4964 139.412 73.1265 135.986 73.1265 132.472C73.1265 105.79 94.4515 84.1609 120.757 84.1609C132.356 84.1609 142.986 88.3657 151.247 95.3545C149.114 103.053 147.975 111.167 147.975 119.544C147.975 134.862 151.786 149.298 158.51 161.933ZM379.6 183.915C371.671 188.002 362.675 190.309 353.141 190.309C343.486 190.309 334.384 187.943 326.383 183.76C317.113 186.782 308.516 191.293 300.874 197.012C313.861 204.439 325.435 214.053 335.096 225.353C337.765 226.099 340.367 227.165 342.843 228.551L402.334 261.831C413.516 268.086 420.442 279.898 420.442 292.71V300.54C432.051 299.952 439.911 293.667 439.911 274.683C439.911 234.875 415.187 196.69 379.6 183.915ZM69.9288 268.337L99.3075 251.691C104.623 248.676 108.868 244.476 111.547 238.943C114.094 233.683 114.699 228.288 114.699 223.677V192.693C114.699 191.827 114.677 190.935 114.626 190.021C116.535 190.212 118.472 190.309 120.431 190.309C130.293 190.309 139.578 187.841 147.703 183.489C157.058 186.434 165.742 190.891 173.469 196.575C139.59 215.642 115.171 249.54 109.018 289.464C101.955 290.684 94.5272 292.69 87.214 294.664L87.2124 294.665C60.343 301.92 35.022 308.756 35.022 274.683C35.022 272.129 35.1238 269.582 35.3237 267.047L38.6459 268.931C43.1735 271.495 48.6689 273.783 55.2599 273.368C61.3625 272.983 66.3837 270.342 69.9288 268.337Z" fill="url(#paint1_linear)"/>
<path fill-rule="evenodd" clip-rule="evenodd" d="M192.39 199.524C148.985 217.092 118.389 259.645 118.389 309.318C118.389 320.892 120.675 327.498 123.346 331.298C125.832 334.835 129.468 337.108 135.069 338.284C140.956 339.52 148.495 339.409 157.685 338.24C166.812 337.079 176.709 335.004 187.254 332.786L187.924 332.645C201.699 329.746 216.724 326.585 230.694 325.821V292.71C230.694 279.898 237.621 268.086 248.803 261.831L308.293 228.551C311.821 226.577 315.602 225.252 319.471 224.576C308.547 213.914 295.567 205.347 281.181 199.524C267.811 206.213 252.724 209.974 236.785 209.974C220.847 209.974 205.76 206.213 192.39 199.524Z" fill="url(#paint2_linear)"/>
</g>
<defs>
<filter id="filter0_d" x="0.499985" y="0" width="455.533" height="455.478" filterUnits="userSpaceOnUse" color-interpolation-filters="sRGB">
<feFlood flood-opacity="0" result="BackgroundImageFix"/>
<feColorMatrix in="SourceAlpha" type="matrix" values="0 0 0 0 0 0 0 0 0 0 0 0 0 0 0 0 0 0 127 0"/>
<feOffset dy="0.5"/>
<feGaussianBlur stdDeviation="0.25"/>
<feColorMatrix type="matrix" values="0 0 0 0 0 0 0 0 0 0 0 0 0 0 0 0 0 0 0.25 0"/>
<feBlend mode="normal" in2="BackgroundImageFix" result="effect1_dropShadow"/>
<feBlend mode="normal" in="SourceGraphic" in2="effect1_dropShadow" result="shape"/>
</filter>
<linearGradient id="paint0_linear" x1="158.861" y1="119.544" x2="315.362" y2="119.544" gradientUnits="userSpaceOnUse">
<stop stop-color="#5BE6C2"/>
<stop offset="1" stop-color="#26D5EA"/>
</linearGradient>
<linearGradient id="paint1_linear" x1="35.022" y1="192.374" x2="439.911" y2="192.374" gradientUnits="userSpaceOnUse">
<stop stop-color="#318879"/>
<stop offset="1" stop-color="#17808C"/>
</linearGradient>
<linearGradient id="paint2_linear" x1="107.502" y1="265.043" x2="366.068" y2="265.043" gradientUnits="userSpaceOnUse">
<stop stop-color="#5BE6C2"/>
<stop offset="1" stop-color="#26D5EA"/>
</linearGradient>
</defs>
</svg>
