<svg width="128" height="43" viewBox="0 0 128 43" fill="none" xmlns="http://www.w3.org/2000/svg">
<path d="M47.3987 29.9161L50.133 36.2868L52.8533 29.9161H54.5386V38.063H53.2519V35.2588L53.3847 31.5315L50.6015 38.063H49.6505L46.8743 31.5595L47.0071 35.2588V38.063H45.7204V29.9161H47.3987ZM62.9218 34.3847H59.2015V37.007H63.5302V38.063H57.9078V29.9161H63.4882V30.9861H59.2015V33.3217H62.9218V34.3847ZM71.333 34.3847H67.6127V37.007H71.9414V38.063H66.319V29.9161H71.8994V30.9861H67.6127V33.3217H71.333V34.3847ZM80.905 30.9861H78.1148V38.063H76.8211V30.9861H74.0449V29.9161H80.905V30.9861Z" fill="#51E3C9"/>
<path d="M54.4023 21.3942C54.4023 20.6163 54.0876 19.9913 53.4583 19.5192C52.8376 19.0472 51.8979 18.6801 50.6392 18.4178C49.3805 18.1469 48.4014 17.8409 47.7021 17.5C47.0116 17.1503 46.4958 16.7264 46.1549 16.2281C45.8228 15.7299 45.6567 15.1267 45.6567 14.4187C45.6567 13.2998 46.1243 12.3776 47.0597 11.6521C47.995 10.9178 49.1925 10.5507 50.6523 10.5507C52.2345 10.5507 53.502 10.9441 54.4548 11.7308C55.4163 12.5087 55.8971 13.5271 55.8971 14.7858H54.3236C54.3236 13.9554 53.974 13.2649 53.2747 12.7142C52.5841 12.1635 51.71 11.8881 50.6523 11.8881C49.6208 11.8881 48.7904 12.1198 48.1611 12.583C47.5404 13.0376 47.2301 13.632 47.2301 14.3663C47.2301 15.0743 47.488 15.625 48.0037 16.0184C48.5282 16.403 49.4766 16.757 50.849 17.0804C52.2301 17.4038 53.2616 17.7491 53.9434 18.1163C54.634 18.4834 55.1453 18.9248 55.4775 19.4406C55.8097 19.9563 55.9757 20.5813 55.9757 21.3156C55.9757 22.5131 55.4906 23.4703 54.5203 24.1871C53.5588 24.9038 52.3 25.2622 50.7441 25.2622C49.092 25.2622 47.7502 24.8645 46.7187 24.0691C45.696 23.2649 45.1847 22.2509 45.1847 21.0271H46.7581C46.8193 21.9449 47.2039 22.6617 47.9119 23.1774C48.6287 23.6844 49.5728 23.9379 50.7441 23.9379C51.8368 23.9379 52.7196 23.6976 53.3927 23.2168C54.0658 22.736 54.4023 22.1285 54.4023 21.3942ZM60.4081 10.8129L60.4605 13.1206C60.985 12.264 61.6406 11.6215 62.4273 11.1932C63.214 10.7649 64.0881 10.5507 65.0497 10.5507C67.2874 10.5507 68.7079 11.4685 69.3111 13.3042C69.818 12.4213 70.4955 11.7439 71.3434 11.2719C72.1913 10.7911 73.1266 10.5507 74.1493 10.5507C77.1913 10.5507 78.7429 12.2115 78.8041 15.5332V25H77.2306V15.6512C77.2219 14.3837 76.9465 13.4441 76.4046 12.8322C75.8714 12.2203 74.9972 11.9143 73.7822 11.9143C72.6546 11.9318 71.7018 12.299 70.9238 13.0157C70.1458 13.7238 69.7131 14.5892 69.6257 15.6119V25H68.0523V15.5332C68.0436 14.3182 67.7551 13.4135 67.1869 12.8191C66.6275 12.2159 65.7621 11.9143 64.5908 11.9143C63.603 11.9143 62.7551 12.1984 62.0471 12.7666C61.339 13.326 60.8145 14.1608 60.4736 15.271V25H58.9002V10.8129H60.4081ZM91.2084 25C91.0511 24.5542 90.9506 23.8942 90.9069 23.0201C90.3562 23.7369 89.6525 24.292 88.7958 24.6853C87.9479 25.0699 87.0476 25.2622 86.0948 25.2622C84.7312 25.2622 83.6254 24.882 82.7775 24.1215C81.9383 23.361 81.5187 22.3995 81.5187 21.2369C81.5187 19.8558 82.0913 18.7631 83.2364 17.9589C84.3902 17.1547 85.9943 16.7526 88.0485 16.7526H90.8937V15.1399C90.8937 14.1259 90.5791 13.3304 89.9497 12.7535C89.3291 12.1678 88.42 11.875 87.2224 11.875C86.1298 11.875 85.225 12.1547 84.5083 12.7142C83.7915 13.2736 83.4331 13.9467 83.4331 14.7334L81.8597 14.7203C81.8597 13.5927 82.3841 12.618 83.4331 11.7963C84.482 10.9659 85.7714 10.5507 87.3011 10.5507C88.8833 10.5507 90.1289 10.9484 91.038 11.7439C91.9558 12.5306 92.4278 13.632 92.4541 15.0481V21.7614C92.4541 23.1337 92.5983 24.1608 92.8867 24.8427V25H91.2084ZM86.2784 23.8724C87.3273 23.8724 88.2626 23.6189 89.0843 23.1119C89.9147 22.6049 90.5179 21.9274 90.8937 21.0795V17.9589H88.0878C86.5231 17.9764 85.2993 18.2649 84.4165 18.8243C83.5336 19.375 83.0922 20.1355 83.0922 21.1058C83.0922 21.9012 83.385 22.5612 83.9707 23.0857C84.5651 23.6101 85.3343 23.8724 86.2784 23.8724ZM104.609 21.3942C104.609 20.6163 104.295 19.9913 103.665 19.5192C103.045 19.0472 102.105 18.6801 100.846 18.4178C99.5874 18.1469 98.6084 17.8409 97.9091 17.5C97.2186 17.1503 96.7028 16.7264 96.3619 16.2281C96.0298 15.7299 95.8637 15.1267 95.8637 14.4187C95.8637 13.2998 96.3313 12.3776 97.2666 11.6521C98.202 10.9178 99.3995 10.5507 100.859 10.5507C102.441 10.5507 103.709 10.9441 104.662 11.7308C105.623 12.5087 106.104 13.5271 106.104 14.7858H104.531C104.531 13.9554 104.181 13.2649 103.482 12.7142C102.791 12.1635 101.917 11.8881 100.859 11.8881C99.8278 11.8881 98.9974 12.1198 98.368 12.583C97.7474 13.0376 97.4371 13.632 97.4371 14.3663C97.4371 15.0743 97.695 15.625 98.2107 16.0184C98.7352 16.403 99.6836 16.757 101.056 17.0804C102.437 17.4038 103.469 17.7491 104.15 18.1163C104.841 18.4834 105.352 18.9248 105.684 19.4406C106.017 19.9563 106.183 20.5813 106.183 21.3156C106.183 22.5131 105.698 23.4703 104.727 24.1871C103.766 24.9038 102.507 25.2622 100.951 25.2622C99.299 25.2622 97.9572 24.8645 96.9257 24.0691C95.903 23.2649 95.3916 22.2509 95.3916 21.0271H96.9651C97.0263 21.9449 97.4109 22.6617 98.1189 23.1774C98.8357 23.6844 99.7798 23.9379 100.951 23.9379C102.044 23.9379 102.927 23.6976 103.6 23.2168C104.273 22.736 104.609 22.1285 104.609 21.3942ZM110.746 13.2124C111.262 12.3645 111.922 11.7089 112.726 11.2456C113.53 10.7823 114.409 10.5507 115.362 10.5507C116.883 10.5507 118.015 10.979 118.758 11.8357C119.501 12.6923 119.876 13.9773 119.885 15.6906V25H118.325V15.6774C118.316 14.41 118.045 13.4659 117.512 12.8453C116.987 12.2247 116.144 11.9143 114.981 11.9143C114.011 11.9143 113.15 12.2203 112.398 12.8322C111.655 13.4353 111.105 14.2526 110.746 15.2841V25H109.186V4.86014H110.746V13.2124Z" fill="white"/>
<path d="M123.242 24.0559C123.242 23.75 123.339 23.4921 123.531 23.2823C123.732 23.0638 124.007 22.9545 124.357 22.9545C124.707 22.9545 124.982 23.0638 125.183 23.2823C125.384 23.4921 125.484 23.75 125.484 24.0559C125.484 24.3619 125.384 24.6154 125.183 24.8164C124.982 25.0087 124.707 25.1049 124.357 25.1049C124.007 25.1049 123.732 25.0087 123.531 24.8164C123.339 24.6154 123.242 24.3619 123.242 24.0559Z" fill="#4AE1CE"/>
<path fill-rule="evenodd" clip-rule="evenodd" d="M13.0713 27.8813L13.0726 26.6952V33.3533C13.0726 35.2074 13.6655 36.3491 15.0562 37.1678L16.5362 38.043V38.0508L17.4696 38.5888L17.4766 38.5866L22.7371 41.5707C23.3666 41.8997 23.887 42.0482 24.3877 42.0482C25.056 42.0482 25.6892 41.7869 26.4967 41.3419L28.7297 40.0598L28.7831 40.0292C30.6554 40.9688 32.7053 41.502 34.7981 41.5939C34.9232 41.5995 35.0467 41.5645 35.1501 41.494C35.2536 41.4236 35.3314 41.3215 35.372 41.2031C35.4126 41.0847 35.4137 40.9564 35.3752 40.8373C35.3367 40.7182 35.2606 40.6148 35.1584 40.5425C34.1184 39.815 33.1856 38.9451 32.3874 37.9582L32.4386 37.9287L33.7587 37.1719C35.1554 36.3711 35.7502 35.2305 35.7502 33.3533V25.8341C35.7502 23.9498 35.1528 22.8059 33.7557 22.0114L27.8841 18.6763C27.7185 18.5797 27.5529 18.4866 27.3878 18.3938L27.3371 18.3653L27.1772 18.2749L27.1769 18.2747C26.9999 18.1748 26.8233 18.075 26.6461 17.9718C25.0521 17.0695 24.2092 16.8874 22.679 17.6937V12.3705C22.679 10.3757 22.007 9.10223 20.4934 8.24129C18.1186 6.89089 15.7967 5.5711 13.5006 4.26961C12.5815 3.74879 11.8874 3.5442 11.1795 3.58564C10.444 3.62895 9.75036 3.94517 8.93534 4.407L8.92899 4.41036C8.76765 4.50454 8.60259 4.5977 8.44217 4.68824L8.41788 4.70195L8.21179 4.81881C8.06245 4.90281 7.909 4.98943 7.75519 5.08015L2.18483 8.24428C0.673519 9.10298 0 10.3761 0 12.3735V19.5078C0 21.4959 0.672026 22.7679 2.17998 23.6322L3.3396 24.2979C2.53793 25.2969 1.59827 26.1769 0.548822 26.9113C0.447633 26.9834 0.372454 27.0863 0.334489 27.2046C0.296524 27.3229 0.297806 27.4503 0.338143 27.5679C0.37848 27.6854 0.455713 27.7867 0.558332 27.8568C0.660951 27.9269 0.783462 27.9619 0.907609 27.9567C3.00145 27.8648 5.05186 27.3291 6.92299 26.3849L6.94913 26.3714L9.07273 27.5908L9.08244 27.596C9.89298 28.0414 10.5908 28.3379 11.3599 28.3379C11.8993 28.3379 12.4463 28.1923 13.0713 27.8813ZM12.6524 26.8012L13.0726 26.5631V25.8341C13.0726 23.9528 13.6696 22.8081 15.0682 22.0114C17.5117 20.6217 19.957 19.2329 22.404 17.8449C22.2744 17.9128 22.1424 17.9852 22.007 18.0618L22.0007 18.0656C21.8431 18.1574 21.6818 18.2485 21.525 18.337V12.3716C21.525 11.5652 21.3992 10.9328 21.1412 10.4377C20.8881 9.95234 20.5005 9.57265 19.9219 9.24298C17.5477 7.89295 15.2263 6.57354 12.9324 5.2713C11.5394 4.48167 10.9496 4.58994 9.50656 5.40683C9.33071 5.50987 9.15449 5.60956 8.98387 5.70551L8.7789 5.82125C8.63293 5.90338 8.48135 5.98888 8.33425 6.07475L8.32865 6.07774L2.75531 9.24336C2.17699 9.5719 1.7902 9.94973 1.53745 10.4351C1.27946 10.9298 1.15402 11.563 1.15402 12.3705V19.5093C1.15402 20.3131 1.27909 20.9441 1.5367 21.438C1.78908 21.9211 2.17625 22.3012 2.75456 22.6327L4.40812 23.5825C4.41895 23.5889 4.42977 23.5956 4.44023 23.6027L4.51191 23.6501C4.57659 23.6932 4.63189 23.7489 4.67449 23.8139C4.71709 23.879 4.74611 23.9519 4.75982 24.0284C4.77352 24.1049 4.77162 24.1834 4.75424 24.2592C4.73685 24.3349 4.70433 24.4064 4.65864 24.4692C4.10446 25.2319 3.47712 25.9387 2.78555 26.5794C4.04355 26.3425 5.26192 25.9296 6.40479 25.353L6.70832 25.2036C6.79328 25.1603 6.88768 25.1388 6.98302 25.141C7.07837 25.1432 7.17167 25.1691 7.25453 25.2163L9.64395 26.5872C10.5445 27.083 10.9824 27.1846 11.3614 27.1846C11.7403 27.1846 12.1506 27.0625 12.6524 26.8012ZM18.5097 37.9325L27.3532 32.5465L27.3995 32.5727C27.541 32.6624 27.7053 32.7097 27.8729 32.7089C28.3956 32.7089 28.8201 32.2654 28.8201 31.7199C28.8201 31.1745 28.396 30.7246 27.8729 30.7246C27.4215 30.7246 27.0321 31.0606 26.9451 31.5251L26.9358 31.5755L18.0953 36.9644C17.8877 37.0868 17.7033 37.2052 17.5353 37.3194L17.4871 37.3515L15.6051 36.2401C14.5574 35.6218 14.1639 34.8411 14.152 33.3545V25.8341C14.1632 24.558 14.4088 23.6314 15.6039 22.9504C17.7942 21.7046 19.9872 20.4585 22.1827 19.212L22.9667 18.7685C24.2059 18.0591 24.6468 18.0823 26.1122 18.913C26.4047 19.0758 26.6945 19.2402 26.9844 19.4047L27.1437 19.495L27.1968 19.5253L18.4257 24.8709C16.8322 25.8416 16.5216 26.2052 16.5216 28.222V31.5135C16.5216 31.6038 16.5198 31.696 16.5175 31.7924C16.5056 32.3987 16.4925 33.0849 16.9092 33.484C17.5741 34.1243 18.4025 33.6248 19.2026 33.1349C22.7121 30.9944 26.2234 28.8552 29.7367 26.7174C30.1813 26.4445 30.5386 26.3665 30.7772 26.505C31.0262 26.6435 31.1576 27.0187 31.1576 27.5903V32.1732C31.1576 32.4241 31.1464 32.6828 31.0721 32.8878C30.8985 33.3571 30.073 33.8585 29.6295 34.1239L29.55 34.1721C27.5406 35.3942 25.5313 36.6189 23.5219 37.8462L21.0298 39.3654L18.5097 37.9325ZM31.3715 38.5425C31.8403 39.1392 32.3554 39.698 32.912 40.2136C31.9146 40.0261 30.9412 39.7278 30.0099 39.3243L28.8384 38.7534L26.1043 40.3215L25.9737 40.3962C24.7114 41.0988 24.2249 41.1309 23.2396 40.6202L22.0696 39.9523L22.2331 39.8537C24.8398 38.2625 27.4485 36.6733 30.0592 35.086L30.197 35.0017L30.2009 34.9993C31.3406 34.3042 32.1645 33.8017 32.1645 32.1721V27.5933C32.1645 26.6144 31.8435 25.8957 31.2584 25.5687C30.7085 25.2577 29.9831 25.3446 29.2244 25.8054C27.9584 26.5782 26.6789 27.3734 25.4428 28.1455L25.416 28.1622C22.9874 29.6758 20.4761 31.241 17.9441 32.6783C17.8145 32.753 17.6909 32.7687 17.6081 32.7157C17.5252 32.6626 17.5028 32.5615 17.5028 32.4812C17.5028 32.0077 17.5089 31.3323 17.5151 30.6328V30.6327V30.6326L17.5152 30.6319L17.5177 30.346L17.5179 30.3206C17.525 29.5307 17.5319 28.7492 17.5319 28.2228C17.5319 26.6453 17.6381 26.5802 18.9314 25.7875L18.9357 25.7848L28.2392 20.117L30.5315 21.4193L27.569 23.2252C25.5412 24.4594 23.5144 25.6942 21.4886 26.9295L21.4465 26.9556L21.4017 26.9318C21.2698 26.8617 21.1231 26.8246 20.9738 26.8235C20.4511 26.8235 20.0266 27.2689 20.0266 27.8166C20.0266 28.3643 20.4511 28.8082 20.9738 28.8082C21.4494 28.8082 21.8527 28.4367 21.912 27.9473L21.921 27.8909L29.7262 23.137L29.8233 23.0788L29.8437 23.0664C29.953 22.9999 30.0679 22.93 30.1776 22.8604L31.5713 22.0095L33.2219 22.9504C34.4218 23.6306 34.6667 24.558 34.6734 25.8341V33.3533C34.6667 34.6253 34.4218 35.5527 33.2219 36.2389L30.6988 37.6853L31.3715 38.5425ZM7.72791 15.9587C7.72791 16.5952 7.2119 17.1112 6.57538 17.1112C5.93886 17.1112 5.42285 16.5952 5.42285 15.9587C5.42285 15.3222 5.93886 14.8062 6.57538 14.8062C7.2119 14.8062 7.72791 15.3222 7.72791 15.9587ZM11.3382 17.1112C11.9747 17.1112 12.4907 16.5952 12.4907 15.9587C12.4907 15.3222 11.9747 14.8062 11.3382 14.8062C10.7017 14.8062 10.1857 15.3222 10.1857 15.9587C10.1857 16.5952 10.7017 17.1112 11.3382 17.1112ZM17.2552 15.9587C17.2552 16.5952 16.7392 17.1112 16.1027 17.1112C15.4662 17.1112 14.9502 16.5952 14.9502 15.9587C14.9502 15.3222 15.4662 14.8062 16.1027 14.8062C16.7392 14.8062 17.2552 15.3222 17.2552 15.9587Z" fill="url(#paint0_linear)"/>
<defs>
<linearGradient id="paint0_linear" x1="0" y1="22.8144" x2="35.7501" y2="22.8144" gradientUnits="userSpaceOnUse">
<stop stop-color="#5BE6C2"/>
<stop offset="1" stop-color="#26D5EA"/>
</linearGradient>
</defs>
</svg>
