<!-- Generated by IcoMoon.io -->
<svg version="1.1" xmlns="http://www.w3.org/2000/svg" width="13" height="9" viewBox="0 0 13 9">
<title></title>
<g id="icomoon-ignore">
</g>
<path fill="#BFBFBF" d="M750.973 591.343l-0.176-0.137v72.215l0.176 0.137v20.645c0 61.85-49.971 111.991-111.616 111.991h-413.904c-61.644 0-111.617-50.142-111.617-111.991v-287.515c0-61.852 49.973-111.993 111.617-111.993h413.904c61.645 0 111.616 50.141 111.616 111.993v20.649l-0.176 0.136v72.211l0.176-0.136v101.796zM639.357 853.333c85.532 0 156.188-63.92 167.1-146.756l42.94 33.291c48.014 37.228 117.714 2.89 117.714-57.998v-282.849c0-60.884-69.7-95.223-117.714-57.997l-42.94 33.293c-10.911-82.837-81.562-146.761-167.1-146.761h-413.904c-93.095 0-168.564 75.723-168.564 169.132v287.515c0 93.406 75.468 169.131 168.564 169.131h413.904zM884.218 694.653l-76.299-59.153v-190.106l76.299-59.156c10.581-8.206 25.947-0.637 25.947 12.783v282.849c0 13.42-15.366 20.992-25.947 12.783z"></path>
</svg>
