<svg width="13" height="9" viewBox="0 0 13 9" fill="none" xmlns="http://www.w3.org/2000/svg">
<path fill-rule="evenodd" clip-rule="evenodd" d="M9.91307 5.23205V3.76799L9.91056 3.76995V2.7314L9.91307 2.72944V2.43247C9.91307 1.54291 9.19935 0.821778 8.31893 0.821778H2.40747C1.52705 0.821778 0.813331 1.54291 0.813331 2.43247V6.56753C0.813331 7.45709 1.52705 8.17822 2.40747 8.17822H8.31893C9.19935 8.17822 9.91307 7.45709 9.91307 6.56753V6.2706L9.91056 6.26864V5.23009L9.91307 5.23205ZM8.31893 9C9.54058 9 10.5497 8.08066 10.7055 6.8893L11.3188 7.36813C12.0046 7.90354 13 7.40966 13 6.53402V2.46603C13 1.59039 12.0046 1.09652 11.3188 1.63192L10.7055 2.11074C10.5497 0.919366 9.54059 0 8.31893 0H2.40747C1.07786 0 0 1.08906 0 2.43247V6.56753C0 7.91094 1.07786 9 2.40747 9H8.31893ZM11.8161 6.71787L10.7264 5.86707V3.13297L11.8161 2.28219C11.9673 2.16417 12.1867 2.27303 12.1867 2.46603V6.53402C12.1867 6.72702 11.9673 6.83588 11.8161 6.71787Z" fill="white"/>
</svg>
