<svg width="22" height="22" viewBox="0 0 17 17" fill="none" xmlns="http://www.w3.org/2000/svg">
<path fill="#656565" fill-rule="evenodd" clip-rule="evenodd" d="M4.5 0C4.22388 0 4 0.223846 4 0.5V1H3C1.89551 1 1 1.89542 1 3V14C1 15.1046 1.89551 16 3 16H11C10.6558 15.7115 10.3845 15.3726 10.209 15H3C2.44775 15 2 14.5523 2 14V3C2 2.44772 2.44775 2 3 2H4V2.5C4 2.77615 4.22388 3 4.5 3C4.77612 3 5 2.77615 5 2.5V2H8V2.5C8 2.77615 8.22388 3 8.5 3C8.77612 3 9 2.77615 9 2.5V2H12V2.5C12 2.77615 12.2239 3 12.5 3C12.7761 3 13 2.77615 13 2.5V2H14C14.5522 2 15 2.44772 15 3V9.78577C15.1362 9.68817 15.3096 9.63297 15.53 9.63297C15.7222 9.63297 15.8765 9.68027 16 9.76471V3C16 1.89542 15.1045 1 14 1H13V0.5C13 0.223846 12.7761 0 12.5 0C12.2239 0 12 0.223846 12 0.5V1H9V0.5C9 0.223846 8.77612 0 8.5 0C8.22388 0 8 0.223846 8 0.5V1H5V0.5C5 0.223846 4.77612 0 4.5 0ZM4.5293 6.05884C4.82178 6.05884 5.05884 5.82181 5.05884 5.52942C5.05884 5.23703 4.82178 5 4.5293 5C4.23706 5 4 5.23703 4 5.52942C4 5.82181 4.23706 6.05884 4.5293 6.05884ZM7.17651 6.05884C7.46875 6.05884 7.70581 5.82181 7.70581 5.52942C7.70581 5.23703 7.46875 5 7.17651 5C6.88403 5 6.64697 5.23703 6.64697 5.52942C6.64697 5.82181 6.88403 6.05884 7.17651 6.05884ZM10.353 5.52942C10.353 5.82181 10.116 6.05884 9.82349 6.05884C9.53125 6.05884 9.29419 5.82181 9.29419 5.52942C9.29419 5.23703 9.53125 5 9.82349 5C10.116 5 10.353 5.23703 10.353 5.52942ZM12.4707 6.05884C12.7629 6.05884 13 5.82181 13 5.52942C13 5.23703 12.7629 5 12.4707 5C12.1782 5 11.9412 5.23703 11.9412 5.52942C11.9412 5.82181 12.1782 6.05884 12.4707 6.05884ZM5.05884 7.64706C5.05884 7.93945 4.82178 8.17648 4.5293 8.17648C4.23706 8.17648 4 7.93945 4 7.64706C4 7.35468 4.23706 7.11765 4.5293 7.11765C4.82178 7.11765 5.05884 7.35468 5.05884 7.64706ZM7.17651 8.17648C7.46875 8.17648 7.70581 7.93945 7.70581 7.64706C7.70581 7.35468 7.46875 7.11765 7.17651 7.11765C6.88403 7.11765 6.64697 7.35468 6.64697 7.64706C6.64697 7.93945 6.88403 8.17648 7.17651 8.17648ZM10.353 7.64706C10.353 7.93945 10.116 8.17648 9.82349 8.17648C9.53125 8.17648 9.29419 7.93945 9.29419 7.64706C9.29419 7.35468 9.53125 7.11765 9.82349 7.11765C10.116 7.11765 10.353 7.35468 10.353 7.64706ZM12.4707 8.17648C12.7629 8.17648 13 7.93945 13 7.64706C13 7.35468 12.7629 7.11765 12.4707 7.11765C12.1782 7.11765 11.9412 7.35468 11.9412 7.64706C11.9412 7.93945 12.1782 8.17648 12.4707 8.17648ZM5.05884 9.76471C5.05884 10.0571 4.82178 10.2941 4.5293 10.2941C4.23706 10.2941 4 10.0571 4 9.76471C4 9.47232 4.23706 9.23529 4.5293 9.23529C4.82178 9.23529 5.05884 9.47232 5.05884 9.76471ZM7.17651 10.2941C7.46875 10.2941 7.70581 10.0571 7.70581 9.76471C7.70581 9.47232 7.46875 9.23529 7.17651 9.23529C6.88403 9.23529 6.64697 9.47232 6.64697 9.76471C6.64697 10.0571 6.88403 10.2941 7.17651 10.2941ZM10.353 9.76471C10.353 10.0571 10.116 10.2941 9.82349 10.2941C9.53125 10.2941 9.29419 10.0571 9.29419 9.76471C9.29419 9.47232 9.53125 9.23529 9.82349 9.23529C10.116 9.23529 10.353 9.47232 10.353 9.76471ZM12.4707 10.2941C12.7629 10.2941 13 10.0571 13 9.76471C13 9.47232 12.7629 9.23529 12.4707 9.23529C12.1782 9.23529 11.9412 9.47232 11.9412 9.76471C11.9412 10.0571 12.1782 10.2941 12.4707 10.2941ZM5.05884 11.8824C5.05884 12.1747 4.82178 12.4118 4.5293 12.4118C4.23706 12.4118 4 12.1747 4 11.8824C4 11.59 4.23706 11.3529 4.5293 11.3529C4.82178 11.3529 5.05884 11.59 5.05884 11.8824ZM7.17651 12.4118C7.46875 12.4118 7.70581 12.1747 7.70581 11.8824C7.70581 11.59 7.46875 11.3529 7.17651 11.3529C6.88403 11.3529 6.64697 11.59 6.64697 11.8824C6.64697 12.1747 6.88403 12.4118 7.17651 12.4118ZM10.353 11.8824C10.353 12.1747 10.116 12.4118 9.82349 12.4118C9.53125 12.4118 9.29419 12.1747 9.29419 11.8824C9.29419 11.59 9.53125 11.3529 9.82349 11.3529C10.116 11.3529 10.353 11.59 10.353 11.8824ZM15.4387 13.2982C15.5291 13.2079 15.6516 13.1574 15.7795 13.1577C15.812 13.1569 15.8442 13.1595 15.876 13.1652C15.9087 13.1711 15.9407 13.1803 15.9714 13.1927C16.0083 13.2077 16.0432 13.2271 16.075 13.2504C16.0959 13.2657 16.1155 13.2827 16.1338 13.3012C16.1799 13.348 16.2161 13.4038 16.2397 13.4651C16.2634 13.5264 16.2744 13.5919 16.272 13.6576C16.271 14.2498 16.0945 14.6779 15.7646 15.1698C15.4348 15.6617 14.9663 16.0447 14.4187 16.2704C13.8713 16.4962 13.269 16.5544 12.6882 16.4379C12.1077 16.3213 11.5745 16.0352 11.1565 15.6158C10.7383 15.1962 10.4541 14.6621 10.3396 14.0811C10.2249 13.5 10.2852 12.898 10.5129 12.3511C10.7405 11.8044 11.125 11.3373 11.6182 11.0091C12.1111 10.6809 12.6904 10.5063 13.2827 10.5073C13.9297 10.5066 14.5586 10.7221 15.0691 11.1197L15.0701 10.4813C15.0781 10.4095 15.1023 10.3412 15.1396 10.2808C15.1638 10.242 15.1934 10.2065 15.228 10.1756C15.3164 10.0966 15.4309 10.0531 15.5496 10.0533C15.6682 10.0535 15.7827 10.0974 15.8708 10.1767C15.959 10.256 16.0149 10.365 16.0276 10.483L16.0242 12.578C16.0203 12.6123 16.0105 12.6458 15.9949 12.6766L15.9019 12.8273C15.8699 12.8604 15.8325 12.8878 15.7915 12.9084L15.658 12.9604C15.6233 12.9651 15.5881 12.965 15.5535 12.9602L13.5396 12.9568C13.4216 12.9436 13.3127 12.8874 13.2339 12.7989C13.1899 12.7495 13.1567 12.692 13.1362 12.6303C13.1199 12.5814 13.1116 12.5297 13.1116 12.4773C13.1118 12.3586 13.1558 12.2443 13.2349 12.1561C13.3142 12.0679 13.4233 12.012 13.5413 11.9992L14.6265 12.0011C14.2627 11.6446 13.7729 11.4457 13.2637 11.4474C12.8608 11.4467 12.4668 11.5655 12.1313 11.7888C11.7959 12.0121 11.5344 12.3297 11.3796 12.7017C11.2246 13.0736 11.1836 13.4832 11.2615 13.8784C11.3396 14.2737 11.533 14.637 11.8174 14.9223C12.1016 15.2077 12.4644 15.4023 12.8594 15.4816C13.2544 15.5609 13.6641 15.5213 14.0364 15.3677C14.4089 15.2141 14.7275 14.9536 14.9519 14.619C15.1763 14.2844 15.2961 14.0414 15.2969 13.6385C15.2971 13.5108 15.3481 13.3883 15.4387 13.2982Z"/>
</svg>
