<svg width="22" height="22" viewBox="0 0 17 17" fill="none" xmlns="http://www.w3.org/2000/svg">
<path fill="#BFBFBF" fill-rule="evenodd" clip-rule="evenodd" d="M0 14C0 11.4354 1.60889 9.24661 3.87256 8.38806C2.74756 7.68018 2 6.4274 2 5C2 2.79089 3.79077 1 6 1C7.88354 1 9.46289 2.30182 9.8877 4.05478C10.449 3.37402 11.2988 2.94 12.25 2.94C13.9399 2.94 15.3101 4.31003 15.3101 6C15.3101 7.07492 14.7556 8.02036 13.9175 8.5661C14.5852 8.83975 15.1814 9.25204 15.6704 9.76718C15.5662 9.7756 15.467 9.81781 15.3884 9.88791C15.3 9.96695 15.2437 10.0758 15.2305 10.1937L15.2302 10.3693C15.0073 10.2106 14.7639 10.086 14.5081 9.99805C13.8142 9.46216 12.9443 9.14334 11.9998 9.14334C11.311 9.14334 10.6624 9.31277 10.0925 9.61221C10.5723 10.0598 10.9783 10.5851 11.291 11.168C11.0129 11.4355 10.7883 11.7552 10.6306 12.1104C9.88525 10.2857 8.09277 9 6 9C3.23853 9 1 11.2386 1 14C1 14 1 14.5 0.5 14.5C0 14.5 0 14 0 14ZM9.28564 8.97873C9.63379 8.75717 10.0107 8.5769 10.4097 8.44495C9.95947 8.10565 9.60596 7.64493 9.39795 7.11142C9.0769 7.62723 8.6416 8.06454 8.12744 8.38806C8.53687 8.54333 8.9248 8.7421 9.28564 8.97873ZM9 5C9 6.65686 7.65674 8 6 8C4.34326 8 3 6.65686 3 5C3 3.34314 4.34326 2 6 2C7.65674 2 9 3.34314 9 5ZM12.25 8.19C13.4595 8.19 14.4399 7.2095 14.4399 6C14.4399 4.7905 13.4595 3.81 12.25 3.81C11.0405 3.81 10.0601 4.7905 10.0601 6C10.0601 7.2095 11.0405 8.19 12.25 8.19ZM16.3018 13.1044C16.1738 13.1042 16.0513 13.1547 15.9609 13.2449C15.8704 13.335 15.8193 13.4575 15.8191 13.5852C15.8184 13.9881 15.6985 14.2311 15.4741 14.5657C15.2498 14.9004 14.9312 15.1609 14.5586 15.3144C14.1863 15.468 13.7766 15.5076 13.3816 15.4283C12.9866 15.349 12.6238 15.1544 12.3396 14.869C12.0552 14.5837 11.8618 14.2204 11.7837 13.8252C11.7058 13.4299 11.7468 13.0204 11.9019 12.6484C12.0566 12.2765 12.3181 11.9588 12.6536 11.7355C12.989 11.5122 13.3831 11.3935 13.7859 11.3941C14.2952 11.3925 14.7849 11.5913 15.1487 11.9478L14.0635 11.946C13.9456 11.9587 13.8364 12.0146 13.7571 12.1028C13.678 12.191 13.634 12.3054 13.6338 12.424C13.6335 12.5426 13.6772 12.6571 13.7561 12.7456C13.835 12.8341 13.9438 12.8903 14.0618 12.9035L16.0757 12.907C16.0874 12.9086 16.0994 12.9097 16.1113 12.9102C16.1343 12.9113 16.1572 12.9102 16.1802 12.9071L16.3137 12.8551C16.3547 12.8345 16.3921 12.8071 16.4241 12.774L16.5171 12.6233C16.5232 12.6114 16.5283 12.599 16.5327 12.5864C16.5396 12.5664 16.5439 12.5457 16.5464 12.5247L16.5498 10.4297C16.5371 10.3117 16.4812 10.2027 16.3931 10.1234C16.3049 10.0441 16.1904 10.0002 16.0718 10C15.9531 9.99979 15.8386 10.0434 15.7502 10.1223C15.6924 10.174 15.6484 10.2384 15.6211 10.3097C15.6067 10.3475 15.5969 10.3872 15.5923 10.428L15.5913 11.0664C15.0808 10.6689 14.4519 10.4533 13.8049 10.454C13.2126 10.453 12.6333 10.6276 12.1404 10.9558C11.6472 11.2841 11.2627 11.7511 11.0352 12.2979C10.8074 12.8447 10.7471 13.4467 10.8618 14.0278C10.9763 14.6089 11.2605 15.1429 11.6787 15.5625C12.0967 15.982 12.6299 16.268 13.2104 16.3846C13.7913 16.5011 14.3936 16.4429 14.9409 16.2171C15.4885 15.9915 15.957 15.6084 16.2869 15.1165C16.6167 14.6246 16.7932 14.1965 16.7942 13.6043C16.7966 13.5386 16.7856 13.4731 16.762 13.4118C16.7383 13.3505 16.7021 13.2947 16.656 13.2479C16.6099 13.201 16.5547 13.1642 16.4937 13.1395C16.4695 13.1297 16.4448 13.1219 16.4197 13.1162C16.3811 13.1075 16.3416 13.1035 16.3018 13.1044Z" />
</svg>
